<svg id="visual" viewBox="0 0 1920 1080" width="1920" height="1080" xmlns="http://www.w3.org/2000/svg" xmlns:xlink="http://www.w3.org/1999/xlink" version="1.1"><path d="M0 169L24.7 166.3C49.3 163.7 98.7 158.3 147.8 147.5C197 136.7 246 120.3 295.2 124C344.3 127.7 393.7 151.3 443 154.3C492.3 157.3 541.7 139.7 590.8 133.2C640 126.7 689 131.3 738.2 140C787.3 148.7 836.7 161.3 886 156.7C935.3 152 984.7 130 1034 122.8C1083.3 115.7 1132.7 123.3 1181.8 121.5C1231 119.7 1280 108.3 1329.2 116.7C1378.3 125 1427.7 153 1477 162.5C1526.3 172 1575.7 163 1624.8 152.8C1674 142.7 1723 131.3 1772.2 136.5C1821.3 141.7 1870.7 163.3 1895.3 174.2L1920 185L1920 0L1895.3 0C1870.7 0 1821.3 0 1772.2 0C1723 0 1674 0 1624.8 0C1575.7 0 1526.3 0 1477 0C1427.7 0 1378.3 0 1329.2 0C1280 0 1231 0 1181.8 0C1132.7 0 1083.3 0 1034 0C984.7 0 935.3 0 886 0C836.7 0 787.3 0 738.2 0C689 0 640 0 590.8 0C541.7 0 492.3 0 443 0C393.7 0 344.3 0 295.2 0C246 0 197 0 147.8 0C98.7 0 49.3 0 24.7 0L0 0Z" fill="#ee7752"></path><path d="M0 98L24.7 96.5C49.3 95 98.7 92 147.8 90.8C197 89.7 246 90.3 295.2 94.2C344.3 98 393.7 105 443 101.7C492.3 98.3 541.7 84.7 590.8 82C640 79.3 689 87.7 738.2 94C787.3 100.3 836.7 104.7 886 106.5C935.3 108.3 984.7 107.7 1034 109.8C1083.3 112 1132.7 117 1181.8 113.3C1231 109.7 1280 97.3 1329.2 100.5C1378.3 103.7 1427.7 122.3 1477 125C1526.3 127.7 1575.7 114.3 1624.8 111.8C1674 109.3 1723 117.7 1772.2 124.8C1821.3 132 1870.7 138 1895.3 141L1920 144L1920 0L1895.3 0C1870.7 0 1821.3 0 1772.2 0C1723 0 1674 0 1624.8 0C1575.7 0 1526.3 0 1477 0C1427.7 0 1378.3 0 1329.2 0C1280 0 1231 0 1181.8 0C1132.7 0 1083.3 0 1034 0C984.7 0 935.3 0 886 0C836.7 0 787.3 0 738.2 0C689 0 640 0 590.8 0C541.7 0 492.3 0 443 0C393.7 0 344.3 0 295.2 0C246 0 197 0 147.8 0C98.7 0 49.3 0 24.7 0L0 0Z" fill="#ea683e"></path><path d="M0 78L24.7 73.2C49.3 68.3 98.7 58.7 147.8 57.2C197 55.7 246 62.3 295.2 62C344.3 61.7 393.7 54.3 443 52.2C492.3 50 541.7 53 590.8 58.7C640 64.3 689 72.7 738.2 75.5C787.3 78.3 836.7 75.7 886 79.3C935.3 83 984.7 93 1034 93.3C1083.3 93.7 1132.7 84.3 1181.8 74.7C1231 65 1280 55 1329.2 58.5C1378.3 62 1427.7 79 1477 81.8C1526.3 84.7 1575.7 73.3 1624.8 65.8C1674 58.3 1723 54.7 1772.2 62C1821.3 69.3 1870.7 87.7 1895.3 96.8L1920 106L1920 0L1895.3 0C1870.7 0 1821.3 0 1772.2 0C1723 0 1674 0 1624.8 0C1575.7 0 1526.3 0 1477 0C1427.7 0 1378.3 0 1329.2 0C1280 0 1231 0 1181.8 0C1132.7 0 1083.3 0 1034 0C984.7 0 935.3 0 886 0C836.7 0 787.3 0 738.2 0C689 0 640 0 590.8 0C541.7 0 492.3 0 443 0C393.7 0 344.3 0 295.2 0C246 0 197 0 147.8 0C98.7 0 49.3 0 24.7 0L0 0Z" fill="#e65828"></path><path d="M0 57L24.7 55.8C49.3 54.7 98.7 52.3 147.8 53.7C197 55 246 60 295.2 55.8C344.3 51.7 393.7 38.3 443 32.8C492.3 27.3 541.7 29.7 590.8 36.5C640 43.3 689 54.7 738.2 60.2C787.3 65.7 836.7 65.3 886 58.8C935.3 52.3 984.7 39.7 1034 34.2C1083.3 28.7 1132.7 30.3 1181.8 36.8C1231 43.3 1280 54.7 1329.2 55.8C1378.3 57 1427.7 48 1477 42C1526.3 36 1575.7 33 1624.8 31.7C1674 30.3 1723 30.7 1772.2 34.5C1821.3 38.3 1870.7 45.7 1895.3 49.3L1920 53L1920 0L1895.3 0C1870.7 0 1821.3 0 1772.2 0C1723 0 1674 0 1624.8 0C1575.7 0 1526.3 0 1477 0C1427.7 0 1378.3 0 1329.2 0C1280 0 1231 0 1181.8 0C1132.7 0 1083.3 0 1034 0C984.7 0 935.3 0 886 0C836.7 0 787.3 0 738.2 0C689 0 640 0 590.8 0C541.7 0 492.3 0 443 0C393.7 0 344.3 0 295.2 0C246 0 197 0 147.8 0C98.7 0 49.3 0 24.7 0L0 0Z" fill="#e0470b"></path></svg>